<?xml version="1.0" encoding="utf-8"?>
<!-- Generator: Adobe Illustrator 16.0.4, SVG Export Plug-In . SVG Version: 6.00 Build 0)  -->
<!DOCTYPE svg PUBLIC "-//W3C//DTD SVG 1.1//EN" "http://www.w3.org/Graphics/SVG/1.1/DTD/svg11.dtd">
<svg version="1.1" id="Capa_1" xmlns="http://www.w3.org/2000/svg" xmlns:xlink="http://www.w3.org/1999/xlink" x="0px" y="0px"
	 width="85.04px" height="56.689px" viewBox="0 0 85.04 56.689" enable-background="new 0 0 85.04 56.689" xml:space="preserve">
<g>
	<path fill="#FFFFFF" d="M70.845,10.874c0,8.612-3.755,14.869-3.913,15.131c-0.317,0.52-0.868,0.805-1.436,0.805
		c-0.299,0-0.6-0.079-0.871-0.243c-0.794-0.482-1.049-1.516-0.568-2.31c0.035-0.058,3.424-5.753,3.424-13.383
		c0-4.352-2.829-7.51-6.729-7.51c-3.711,0-6.729,3.018-6.729,6.73c0,1.582,0.765,5.6,1.059,7.015c0.191,0.91-0.395,1.8-1.305,1.991
		c-0.91,0.187-1.801-0.395-1.989-1.303c-0.116-0.555-1.134-5.487-1.134-7.703C50.655,4.529,55.184,0,60.752,0
		C66.504,0,70.845,4.674,70.845,10.874z M61.038,13.521c0.668,5.591,1.639,16.484,0.523,17.595L37.116,55.563
		c-1.502,1.505-3.943,1.505-5.448-0.002L15.322,39.217c-1.505-1.503-1.505-3.943,0-5.448L39.77,9.323
		c0.388-0.389,4.617-0.406,9.372-0.158c-0.026,0.313-0.094,0.609-0.094,0.93c0,1.22,0.27,3.11,0.553,4.772
		c-0.498,0.739-0.79,1.628-0.79,2.586c0,2.553,2.07,4.623,4.624,4.623c2.553,0,4.623-2.07,4.623-4.623
		c0-1.572-0.787-2.958-1.987-3.792c-0.245-1.463-0.443-2.875-0.443-3.566c0-0.148,0.03-0.287,0.044-0.434
		c0.586,0.062,1.162,0.125,1.709,0.192C60.61,10.251,60.643,10.244,61.038,13.521z"/>
</g>
<g>
	<g>
		<path fill="#1D2833" d="M25.958,32.354l2.489,2.489l-2.134,2.134c-0.104,0.104-0.156,0.223-0.155,0.355
			c0,0.134,0.052,0.252,0.155,0.356l1.855,1.855c0.097,0.096,0.213,0.146,0.35,0.149c0.137,0.004,0.258-0.046,0.361-0.149
			l2.134-2.134l5.612,5.611c0.104,0.104,0.223,0.156,0.356,0.155c0.132,0,0.251-0.052,0.355-0.155l1.422-1.423
			c0.103-0.103,0.155-0.222,0.155-0.354c0-0.133-0.051-0.253-0.155-0.356l-5.612-5.611l1.311-1.312l3.778,3.778
			c1.482,1.481,3.141,2.239,4.983,2.272c1.841,0.034,3.476-0.664,4.906-2.095c1.43-1.43,2.128-3.064,2.095-4.906
			c-0.033-1.84-0.791-3.502-2.272-4.983l-5.99-5.99c-0.104-0.104-0.222-0.155-0.355-0.156c-0.133,0-0.252,0.053-0.356,0.156
			l-6.989,6.99l-2.489-2.489c-0.104-0.104-0.224-0.153-0.361-0.15c-0.137,0.004-0.253,0.053-0.35,0.15l-1.655,1.655
			c-0.104,0.104-0.156,0.223-0.156,0.356c0,0.134,0.052,0.251,0.156,0.355l2.489,2.489l-1.312,1.311l-2.489-2.489
			c-0.104-0.104-0.223-0.154-0.356-0.154c-0.133,0-0.251,0.051-0.355,0.154l-1.422,1.423c-0.104,0.104-0.156,0.223-0.155,0.355
			C25.803,32.132,25.854,32.25,25.958,32.354z M41.804,26.62l3.556,3.557c0.785,0.784,1.189,1.647,1.212,2.588
			c0.022,0.941-0.338,1.782-1.078,2.522c-0.741,0.741-1.582,1.102-2.523,1.078c-0.941-0.022-1.804-0.425-2.589-1.21l-3.556-3.557
			L41.804,26.62z"/>
	</g>
</g>
</svg>
