<?xml version="1.0" encoding="iso-8859-1"?>
<!-- Generator: Adobe Illustrator 19.0.0, SVG Export Plug-In . SVG Version: 6.00 Build 0)  -->
<svg version="1.1" id="Layer_1" xmlns="http://www.w3.org/2000/svg" xmlns:xlink="http://www.w3.org/1999/xlink" x="0px" y="0px"
	 viewBox="0 0 512 512" style="enable-background:new 0 0 512 512;" xml:space="preserve">
<g>
	<g>
		<path d="M493.526,0H18.474C8.288,0,0,8.288,0,18.474v475.052C0,503.712,8.288,512,18.474,512h475.052
			c10.186,0,18.474-8.288,18.474-18.474V18.474C512,8.288,503.712,0,493.526,0z M496.165,493.526c0,1.43-1.209,2.639-2.639,2.639
			H18.474c-1.43,0-2.639-1.209-2.639-2.639V18.474c0-1.43,1.209-2.639,2.639-2.639h475.052c1.43,0,2.639,1.209,2.639,2.639V493.526z
			"/>
	</g>
</g>
<g>
	<g>
		<rect x="34.309" y="36.948" width="26.392" height="15.835"/>
	</g>
</g>
<g>
	<g>
		<rect x="451.299" y="36.948" width="26.392" height="15.835"/>
	</g>
</g>
<g>
	<g>
		<rect x="34.309" y="459.216" width="26.392" height="15.835"/>
	</g>
</g>
<g>
	<g>
		<rect x="451.299" y="459.216" width="26.392" height="15.835"/>
	</g>
</g>
<g>
	<g>
		<polygon points="446.356,87.398 435.128,76.231 290.309,221.855 290.309,182.982 274.474,182.982 274.474,248.962 
			340.454,248.962 340.454,233.127 301.432,233.127 		"/>
	</g>
</g>
<g>
	<g>
		<polygon points="221.691,182.103 221.691,220.975 76.872,75.352 65.644,86.517 210.568,232.247 171.546,232.247 171.546,248.082 
			237.526,248.082 237.526,182.103 		"/>
	</g>
</g>
<g>
	<g>
		<polygon points="171.546,272.714 171.546,288.549 210.568,288.549 65.644,434.279 76.872,445.445 221.691,299.822 
			221.691,338.694 237.526,338.694 237.526,272.714 		"/>
	</g>
</g>
<g>
	<g>
		<polygon points="296.154,289.43 335.175,289.43 335.175,273.595 269.196,273.595 269.196,339.574 285.031,339.574 
			285.031,300.701 429.85,446.326 441.078,435.159 		"/>
	</g>
</g>
<g>
</g>
<g>
</g>
<g>
</g>
<g>
</g>
<g>
</g>
<g>
</g>
<g>
</g>
<g>
</g>
<g>
</g>
<g>
</g>
<g>
</g>
<g>
</g>
<g>
</g>
<g>
</g>
<g>
</g>
</svg>
